<svg xmlns="http://www.w3.org/2000/svg" width="596" height="842" viewBox="0 0 596 842">
  <g fill="none">
    <rect width="595.28" height="841.89" fill="#FF8700"/>
    <path fill="#FFFFFF" d="M317.19 358.2L276.53 358.2C274.693171 358.205491 273.205491 359.693171 273.2 361.53L273.2 430.83C273.205491 432.666829 274.693171 434.154509 276.53 434.16L317.19 434.16C319.026829 434.154509 320.514509 432.666829 320.52 430.83L320.52 361.53C320.514509 359.693171 319.026829 358.205491 317.19 358.2L317.19 358.2zM296.86 360.9C297.611107 360.9 298.22 361.508893 298.22 362.26 298.22 363.011107 297.611107 363.62 296.86 363.62 296.108893 363.62 295.5 363.011107 295.5 362.26 295.5 361.899306 295.643285 361.553384 295.898335 361.298335 296.153384 361.043285 296.499306 360.9 296.86 360.9zM300.6 429C300.594509 430.836829 299.106829 432.324509 297.27 432.33L296.45 432.33C294.613171 432.324509 293.125491 430.836829 293.12 429L293.12 428.18C293.125491 426.343171 294.613171 424.855491 296.45 424.85L297.27 424.85C299.106829 424.855491 300.594509 426.343171 300.6 428.18L300.6 429 300.6 429zM315.81 423L277.92 423 277.92 366.15 315.8 366.15 315.8 423.07 315.81 423zM321.95 341.34L321.95 337.94 314.86 343.94 321.95 349.94 321.95 346.09C327.911649 346.80321 332.401928 351.855847 332.41 357.86L337.12 357.86C337.120033 349.249663 330.529145 342.072242 321.95 341.34zM273.33 450.83L273.33 454.23 280.42 448.23 273.33 442.23 273.33 446.08C267.368351 445.36679 262.878072 440.314153 262.87 434.31L258.16 434.31C258.159967 442.920337 264.750855 450.097758 273.33 450.83z"/>
  </g>
</svg>
